<?xml version="1.0" encoding="UTF-8" standalone="no"?>
<svg width="174px" height="174px" viewBox="0 0 174 174" version="1.1" xmlns="http://www.w3.org/2000/svg" xmlns:xlink="http://www.w3.org/1999/xlink">
    <!-- Generator: Sketch 39 (31667) - http://www.bohemiancoding.com/sketch -->
    <title>Combined Shape</title>
    <desc>Created with Sketch.</desc>
    <defs></defs>
    <g id="Page-1" stroke="none" stroke-width="1" fill="none" fill-rule="evenodd">
        <path d="M87,174 C135.048773,174 174,135.048773 174,87 C174,38.9512268 135.048773,0 87,0 C38.9512268,0 0,38.9512268 0,87 C0,135.048773 38.9512268,174 87,174 Z M91.285362,41.1455929 C89.4910283,57.0952256 85.4039349,69.456191 79.2234523,78.3281742 L87.5970094,84.3092865 C91.3850472,79.5243966 94.4752886,72.9451731 96.8677335,64.6713012 L117.3032,64.6713012 C115.807922,71.4498951 114.013589,77.4310073 111.920199,82.614638 L121.88872,85.5055089 C124.38085,77.5306925 126.374554,69.5558762 127.869832,61.5810598 L127.869832,55.0018363 L99.2601784,55.0018363 C100.05766,51.2137985 100.655771,47.1267051 101.253882,42.7405561 L91.285362,41.1455929 Z M98.9611228,71.0511542 C98.8614376,83.61149 97.7649003,93.7793809 95.7711962,101.754197 C93.4784365,109.729014 88.9926023,116.806663 82.4133788,122.787775 L82.4133788,117.105719 L56.0964848,117.105719 C53.3052991,117.105719 51.9097062,116.009182 51.9097062,113.915792 L51.9097062,109.130902 L57.6914481,114.214848 C61.6788562,109.429958 65.466894,103.747901 68.9558762,97.2683631 C71.0492655,101.953568 73.1426548,106.937828 75.1363589,112.121459 L83.5099161,107.73531 C80.5193599,100.358604 77.4291186,93.1812697 74.0398216,86.3029906 C76.9306925,79.225341 79.6221931,71.3502099 82.014638,62.6775971 L73.3420252,59.2883001 C71.9464323,64.8706716 70.2517838,70.2536726 68.4574502,75.4373033 C65.7659496,70.5527282 62.9747639,65.8675236 60.1835782,61.2820042 L52.1090766,64.8706716 C56.19617,71.5495803 60.083893,78.726915 63.8719307,86.4026758 C60.4826338,93.5800105 56.4952256,100.159234 51.9097062,105.940976 L51.9097062,54.6030955 L83.8089717,54.6030955 L83.8089717,45.2326863 L42.1495466,45.2326863 C40.4929427,45.2326863 39.15,46.5752374 39.15,48.2233056 L39.15,54.6030955 L42.3399265,54.6030955 L42.3399265,115.2117 C42.3399265,122.389035 45.9285939,125.977702 53.2056139,125.977702 L79.6221931,125.977702 L85.8026758,133.354407 C95.5718258,125.977702 101.851994,116.906348 104.742865,106.140346 C109.527754,116.308237 116.106978,125.18022 124.38085,132.556925 L131.458499,124.283054 C120.293757,115.909496 112.31894,104.744753 107.633736,90.88851 C108.231847,84.9073977 108.630588,78.228489 108.630588,71.0511542 L98.9611228,71.0511542 Z" id="Combined-Shape" fill="#FF5252"></path>
    </g>
</svg>