<?xml version="1.0" encoding="UTF-8" standalone="no"?>
<svg width="275px" height="382px" viewBox="0 0 275 382" version="1.1" xmlns="http://www.w3.org/2000/svg" xmlns:xlink="http://www.w3.org/1999/xlink">
    <!-- Generator: Sketch 3.8.3 (29802) - http://www.bohemiancoding.com/sketch -->
    <title>Group 6</title>
    <desc>Created with Sketch.</desc>
    <defs>
        <rect id="path-1" x="0" y="0" width="38" height="12" rx="2"></rect>
        <mask id="mask-2" maskContentUnits="userSpaceOnUse" maskUnits="objectBoundingBox" x="0" y="0" width="38" height="12" fill="white">
            <use xlink:href="#path-1"></use>
        </mask>
    </defs>
    <g id="Page-1" stroke="none" stroke-width="1" fill="none" fill-rule="evenodd">
        <g id="Artboard-5" transform="translate(-79.000000, -226.000000)">
            <g id="Group-6" transform="translate(79.000000, 226.000000)">
                <text id="12-months:-$100.00/m-copy" font-family="AvenirNext-Medium, Avenir Next" font-size="10" font-weight="400" line-spacing="12" letter-spacing="-0.350787997" fill="#717171">
                    <tspan x="153.4" y="165"></tspan>
                    <tspan x="149" y="174.009949">12 months: $100.00/mo</tspan>
                    <tspan x="149" y="186.009949">Down payment: $300.00</tspan>
                    <tspan x="149" y="198.009949">$1500 total</tspan>
                </text>
                <rect id="Rectangle-82" fill="#F5F5F5" transform="translate(126.750000, 186.500000) rotate(-270.000000) translate(-126.750000, -186.500000) " x="-51" y="184" width="355.5" height="5" rx="2.5"></rect>
                <g id="Group-2" transform="translate(117.000000, 3.000000)">
                    <circle id="Oval-9-Copy-3" fill="#04AADC" cx="10" cy="10" r="10"></circle>
                    <circle id="Oval-9" fill="#FFFFFF" cx="10" cy="10" r="7"></circle>
                </g>
                <g id="Group-3" transform="translate(117.000000, 119.000000)">
                    <circle id="Oval-9-Copy-4" fill="#04AADC" cx="10" cy="10" r="10"></circle>
                    <circle id="Oval-9-Copy" fill="#FFFFFF" cx="10" cy="10" r="7"></circle>
                </g>
                <g id="Group-4" transform="translate(117.000000, 235.000000)">
                    <circle id="Oval-9-Copy-5" fill="#04AADC" cx="10" cy="10" r="10"></circle>
                    <circle id="Oval-9-Copy-2" fill="#FFFFFF" cx="10" cy="10" r="7"></circle>
                </g>
                <g id="Group-5" transform="translate(117.000000, 351.000000)">
                    <circle id="Oval-9-Copy-6" fill="#04AADC" cx="10" cy="10" r="10"></circle>
                    <circle id="Oval-9-Copy-7" fill="#FFFFFF" cx="10" cy="10" r="7"></circle>
                </g>
                <text id="DESIGN" font-family="Avenir-Medium, Avenir" font-size="12" font-weight="400" line-spacing="12" letter-spacing="-0.420945585" fill="#4B4B4B">
                    <tspan x="149" y="121">DESIGN</tspan>
                    <tspan x="149" y="133">set up </tspan>
                    <tspan x="149" y="145">a installment plans</tspan>
                </text>
                <text id="SIGN-UP" font-family="Avenir-Medium, Avenir" font-size="12" font-weight="400" line-spacing="12" letter-spacing="-0.420945585" fill="#4B4B4B">
                    <tspan x="59.620653" y="12">SIGN UP</tspan>
                    <tspan x="10" y="24">link with your bank</tspan>
                </text>
                <text id="REQUEST" font-family="Avenir-Medium, Avenir" font-size="12" font-weight="400" line-spacing="12" letter-spacing="-0.420945585" fill="#4B4B4B">
                    <tspan x="53.9157074" y="246">REQUEST</tspan>
                    <tspan x="0" y="258">send out the request</tspan>
                </text>
                <text id="RECEIVE" font-family="Avenir-Medium, Avenir" font-size="12" font-weight="400" line-spacing="12" letter-spacing="-0.420945585" fill="#4B4B4B">
                    <tspan x="149" y="356">RECEIVE</tspan>
                    <tspan x="149" y="368">transaction automatically</tspan>
                    <tspan x="149" y="380">completed</tspan>
                </text>
                <g id="Group" transform="translate(149.000000, 151.000000)">
                    <path d="M9.00496787,5.71091566 C8.9192914,5.57169141 8.79881068,5.45790406 8.64352208,5.3695502 C8.48823349,5.28119635 8.31420578,5.23702008 8.12143373,5.23702008 C8.03575727,5.23702008 7.95008208,5.2463908 7.86440562,5.26513253 C7.77872915,5.28387426 7.70242469,5.3133251 7.63548996,5.35348594 C7.56855522,5.39364679 7.51500823,5.44451643 7.47484739,5.50609639 C7.43468654,5.56767635 7.41460642,5.6439808 7.41460642,5.73501205 C7.41460642,5.89565542 7.48689486,6.01479747 7.63147389,6.09244177 C7.77605293,6.17008606 7.99291823,6.24103582 8.2820763,6.30529317 C8.46413879,6.34813141 8.6328118,6.39900104 8.7881004,6.45790361 C8.94338899,6.51680618 9.07859514,6.59043329 9.19372289,6.67878715 C9.30885064,6.767141 9.39854184,6.87289631 9.46279919,6.99605622 C9.52705654,7.11921614 9.55918474,7.26379301 9.55918474,7.42979116 C9.55918474,7.65469189 9.51634714,7.84478369 9.43067068,8.00007229 C9.34499421,8.15536088 9.23120686,8.28253498 9.08930522,8.38159839 C8.94740357,8.48066181 8.78542393,8.55161157 8.60336144,8.5944498 C8.42129895,8.63728803 8.23388449,8.65870683 8.04111245,8.65870683 C7.75195437,8.65870683 7.46949401,8.60248249 7.19372289,8.49003213 C6.91795176,8.37758177 6.68903839,8.20623141 6.5069759,7.9759759 L7.04512851,7.51814458 C7.14686931,7.66807839 7.28743016,7.79391382 7.46681526,7.89565462 C7.64620036,7.99739542 7.84298554,8.04826506 8.0571767,8.04826506 C8.15356273,8.04826506 8.24593128,8.03889434 8.33428514,8.02015261 C8.42263899,8.00141088 8.50295947,7.97062137 8.57524899,7.92778313 C8.64753851,7.8849449 8.70510152,7.82872056 8.74793976,7.75910843 C8.79077799,7.68949631 8.81219678,7.60114378 8.81219678,7.49404819 C8.81219678,7.31734048 8.72786028,7.18615036 8.55918474,7.1004739 C8.39050919,7.01479743 8.14285437,6.93447695 7.81621285,6.85951004 C7.68769815,6.82738137 7.5578467,6.7885598 7.42665461,6.74304418 C7.29546253,6.69752855 7.17632048,6.63461084 7.0692249,6.55428916 C6.96212931,6.47396747 6.87511546,6.37356687 6.80818072,6.25308434 C6.74124598,6.13260181 6.70777911,5.98400892 6.70777911,5.8073012 C6.70777911,5.6038196 6.74927803,5.42845321 6.8322771,5.28119679 C6.91527618,5.13394036 7.02370883,5.01345964 7.15757831,4.919751 C7.29144779,4.82604237 7.4440567,4.75643129 7.61540963,4.71091566 C7.78676257,4.66540004 7.96346763,4.64264257 8.14553012,4.64264257 C8.41862385,4.64264257 8.68234277,4.69618956 8.93669478,4.80328514 C9.19104678,4.91038072 9.38783196,5.06566699 9.52705622,5.26914859 L9.00496787,5.71091566 Z M12.5632008,6.0884257 C12.5632008,5.80462241 12.4775256,5.59445048 12.3061727,5.45790361 C12.1348197,5.32135675 11.907245,5.25308434 11.6234418,5.25308434 C11.4092506,5.25308434 11.2071107,5.29458325 11.017016,5.37758233 C10.8269214,5.46058141 10.6676191,5.56633671 10.5391044,5.69485141 L10.137498,5.21292369 C10.3249152,5.03621598 10.5538286,4.89699382 10.824245,4.79525301 C11.0946613,4.69351221 11.3851537,4.64264257 11.6957309,4.64264257 C11.9688246,4.64264257 12.2057701,4.68146414 12.4065743,4.75910843 C12.6073785,4.83675273 12.7720355,4.94250803 12.9005502,5.07637751 C13.0290649,5.21024699 13.1254495,5.3682106 13.1897068,5.55027309 C13.2539642,5.73233558 13.2860924,5.92778209 13.2860924,6.13661847 L13.2860924,7.79926908 C13.2860924,7.92778378 13.2901084,8.06298992 13.2981405,8.20489157 C13.3061727,8.34679321 13.3208981,8.46325791 13.3423173,8.55428916 L12.6595863,8.55428916 C12.6167481,8.37222667 12.5953293,8.19016691 12.5953293,8.00810442 L12.5712329,8.00810442 C12.4320087,8.21158602 12.2566423,8.36954964 12.0451285,8.482 C11.8336147,8.59445036 11.5832826,8.6506747 11.2941245,8.6506747 C11.1441907,8.6506747 10.9875657,8.63059458 10.824245,8.59043373 C10.6609242,8.55027289 10.5123313,8.48467783 10.3784618,8.39364659 C10.2445924,8.30261534 10.1334824,8.18213462 10.0451285,8.0322008 C9.95677464,7.88226699 9.91259838,7.69752988 9.91259838,7.47798394 C9.91259838,7.18882586 9.99024151,6.95991249 10.1455301,6.79123695 C10.3008187,6.62256141 10.5042973,6.49404863 10.7559719,6.40569478 C11.0076465,6.31734092 11.2914455,6.25977791 11.6073775,6.23300402 C11.9233095,6.20623012 12.241914,6.19284337 12.5632008,6.19284337 L12.5632008,6.0884257 Z M12.3784618,6.73902811 C12.1910446,6.73902811 11.9969367,6.74706016 11.7961325,6.7631245 C11.5953283,6.77918884 11.4132685,6.81131703 11.2499478,6.85951004 C11.086627,6.90770305 10.9514209,6.97999149 10.8443253,7.07637751 C10.7372297,7.17276353 10.6836827,7.30127631 10.6836827,7.46191968 C10.6836827,7.57437004 10.7064402,7.66807727 10.7519558,7.74304418 C10.7974714,7.81801108 10.8577118,7.87959012 10.9326787,7.92778313 C11.0076456,7.97597614 11.0906434,8.00944301 11.1816747,8.02818474 C11.2727059,8.04692647 11.3664132,8.05629719 11.4627992,8.05629719 C11.8162146,8.05629719 12.0879656,7.95054189 12.2780602,7.73902811 C12.4681549,7.52751434 12.5632008,7.26111807 12.5632008,6.93983133 L12.5632008,6.73902811 L12.3784618,6.73902811 Z M14.9648072,5.37356627 C15.0611932,5.17008466 15.2151408,4.99739562 15.4266546,4.85549398 C15.6381684,4.71359233 15.8885005,4.64264257 16.1776586,4.64264257 C16.434688,4.64264257 16.6662787,4.70154426 16.8724377,4.8193494 C17.0785967,4.93715454 17.2405764,5.13260104 17.3583815,5.40569478 C17.4868962,5.15937494 17.6662786,4.97062181 17.8965341,4.83942972 C18.1267896,4.70823763 18.3784605,4.64264257 18.6515542,4.64264257 C18.897874,4.64264257 19.1093846,4.68414149 19.2860923,4.76714056 C19.4628001,4.85013964 19.6100543,4.96124964 19.7278594,5.1004739 C19.8456645,5.23969815 19.9326784,5.40301647 19.9889036,5.59043373 C20.0451288,5.777851 20.0732409,5.97865221 20.0732409,6.19284337 L20.0732409,8.55428916 L19.3182209,8.55428916 L19.3182209,6.44183936 C19.3182209,6.28655076 19.3048341,6.13929655 19.2780602,6.00007229 C19.2512863,5.86084803 19.2057714,5.73768996 19.141514,5.63059438 C19.0772567,5.5234988 18.9915815,5.43782361 18.8844859,5.37356627 C18.7773903,5.30930892 18.6408455,5.27718072 18.4748474,5.27718072 C18.3034944,5.27718072 18.1562402,5.31332494 18.0330803,5.38561446 C17.9099204,5.45790398 17.8095198,5.5516112 17.7318755,5.66673896 C17.6542312,5.78186671 17.5980068,5.91171815 17.5632008,6.05629719 C17.5283947,6.20087622 17.5109919,6.34813044 17.5109919,6.49806426 L17.5109919,8.55428916 L16.7559719,8.55428916 L16.7559719,6.28922892 C16.7559719,6.1392951 16.7425851,6.00275028 16.7158112,5.87959036 C16.6890373,5.75643044 16.6435224,5.65067514 16.579265,5.56232129 C16.5150077,5.47396743 16.4320099,5.40435635 16.330269,5.35348594 C16.2285282,5.30261554 16.1026928,5.27718072 15.952759,5.27718072 C15.6743105,5.27718072 15.4427198,5.39096807 15.2579799,5.61854618 C15.07324,5.8461243 14.9808715,6.15000345 14.9808715,6.53019277 L14.9808715,8.55428916 L14.2258514,8.55428916 L14.2258514,5.56633735 C14.2258514,5.46459655 14.223174,5.33340643 14.2178192,5.17276305 C14.2124645,5.01211968 14.2044324,4.87022016 14.1937229,4.74706024 L14.9085823,4.74706024 C14.9192919,4.84344627 14.9273239,4.95187892 14.9326787,5.07236145 C14.9380335,5.19284398 14.9407108,5.29324458 14.9407108,5.37356627 L14.9648072,5.37356627 Z M21.7840843,10.482 L21.0290642,10.482 L21.0290642,4.74706024 L21.76802,4.74706024 L21.76802,5.34143775 L21.7921164,5.34143775 C21.9152763,5.13795614 22.0959974,4.97062181 22.3342851,4.83942972 C22.5725728,4.70823763 22.8496784,4.64264257 23.1656104,4.64264257 C23.4494137,4.64264257 23.7077779,4.69351221 23.9407108,4.79525301 C24.1736437,4.89699382 24.3744449,5.03889333 24.5431204,5.22095582 C24.711796,5.40301831 24.8416474,5.61586759 24.9326787,5.85951004 C25.0237099,6.10315249 25.0692249,6.36419406 25.0692249,6.64264257 C25.0692249,6.92109108 25.0237099,7.18347133 24.9326787,7.42979116 C24.8416474,7.676111 24.7131347,7.89029896 24.5471365,8.07236145 C24.3811384,8.25442394 24.1803371,8.39766213 23.9447269,8.50208032 C23.7091166,8.60649851 23.444059,8.65870683 23.1495461,8.65870683 C22.8764524,8.65870683 22.6194269,8.59980514 22.3784618,8.482 C22.1374967,8.36419486 21.9474049,8.1981992 21.8081807,7.98400803 L21.7840843,7.98400803 L21.7840843,10.482 Z M24.2901084,6.64264257 C24.2901084,6.46593486 24.2633349,6.2945845 24.2097871,6.12858635 C24.1562393,5.96258819 24.0759188,5.81533398 23.9688233,5.68681928 C23.8617277,5.55830458 23.7291989,5.4565653 23.5712329,5.38159839 C23.4132669,5.30663149 23.2298685,5.26914859 23.0210321,5.26914859 C22.82826,5.26914859 22.6528937,5.30663149 22.4949277,5.38159839 C22.3369617,5.4565653 22.2017555,5.55830458 22.0893052,5.68681928 C21.9768548,5.81533398 21.889841,5.96258819 21.828261,6.12858635 C21.766681,6.2945845 21.7358915,6.46861221 21.7358915,6.6506747 C21.7358915,6.83273719 21.766681,7.0067649 21.828261,7.17276305 C21.889841,7.3387612 21.9768548,7.48467675 22.0893052,7.61051406 C22.2017555,7.73635137 22.3369617,7.83675197 22.4949277,7.91171888 C22.6528937,7.98668578 22.82826,8.02416867 23.0210321,8.02416867 C23.2298685,8.02416867 23.4132669,7.98534711 23.5712329,7.90770281 C23.7291989,7.83005851 23.8617277,7.72698056 23.9688233,7.59846586 C24.0759188,7.46995116 24.1562393,7.32269695 24.2097871,7.1566988 C24.2633349,6.99070064 24.2901084,6.81935028 24.2901084,6.64264257 L24.2901084,6.64264257 Z M26.5712329,8.55428916 L25.8162128,8.55428916 L25.8162128,2.482 L26.5712329,2.482 L26.5712329,8.55428916 Z M30.3543654,6.3133253 C30.3490106,6.16339149 30.3235758,6.02283064 30.2780602,5.89163855 C30.2325446,5.76044647 30.1656108,5.64665912 30.077257,5.55027309 C29.9889031,5.45388707 29.8791318,5.37758261 29.7479397,5.32135743 C29.6167476,5.26513225 29.4628,5.23702008 29.2860923,5.23702008 C29.1254489,5.23702008 28.9741787,5.26513225 28.832277,5.32135743 C28.6903754,5.37758261 28.5672173,5.45388707 28.4627991,5.55027309 C28.3583809,5.64665912 28.2727058,5.76044647 28.205771,5.89163855 C28.1388363,6.02283064 28.1000147,6.16339149 28.0893052,6.3133253 L30.3543654,6.3133253 Z M31.1174176,6.61854618 L31.1174176,6.74706024 C31.1174176,6.78989847 31.1147403,6.83273606 31.1093855,6.8755743 L28.0893052,6.8755743 C28.0946599,7.03621767 28.1308041,7.18748791 28.1977389,7.32938956 C28.2646736,7.4712912 28.3543648,7.59444928 28.4668152,7.69886747 C28.5792656,7.80328566 28.709117,7.88494482 28.8563734,7.94384739 C29.0036299,8.00274996 29.1602548,8.0322008 29.3262529,8.0322008 C29.5832823,8.0322008 29.8055023,7.97597647 29.9929196,7.8635261 C30.1803369,7.75107574 30.3275911,7.61453092 30.4346867,7.45388755 L30.9648072,7.87959036 C30.7613256,8.14732932 30.5217028,8.3441145 30.2459317,8.46995181 C29.9701605,8.59578912 29.663604,8.65870683 29.3262529,8.65870683 C29.0370949,8.65870683 28.7693599,8.61051454 28.5230401,8.51412851 C28.2767203,8.41774249 28.0652097,8.28253635 27.8885019,8.10850602 C27.7117942,7.9344757 27.5725721,7.72430378 27.4708313,7.47798394 C27.3690905,7.2316641 27.3182208,6.95857446 27.3182208,6.65870683 C27.3182208,6.36419398 27.3677518,6.09244301 27.4668152,5.84344578 C27.5658786,5.59444855 27.7037621,5.38159928 27.8804698,5.20489157 C28.0571775,5.02818386 28.2660108,4.89030036 28.5069758,4.79123695 C28.7479409,4.69217353 29.0076438,4.64264257 29.2860923,4.64264257 C29.5645408,4.64264257 29.8175503,4.68815751 30.0451284,4.77918876 C30.2727066,4.87022 30.4654757,5.00141012 30.6234417,5.17276305 C30.7814077,5.34411598 30.9032271,5.55161056 30.9889035,5.79525301 C31.07458,6.03889546 31.1174176,6.31332378 31.1174176,6.61854618 L31.1174176,6.61854618 Z" id="Shape" fill="#A5A5A5"></path>
                    <use id="Rectangle-84" stroke="#A5A5A5" mask="url(#mask-2)" stroke-width="2" xlink:href="#path-1"></use>
                </g>
            </g>
        </g>
    </g>
</svg>
