<?xml version="1.0" encoding="UTF-8" standalone="no"?>
<svg width="710px" height="107px" viewBox="0 0 710 107" version="1.1" xmlns="http://www.w3.org/2000/svg" xmlns:xlink="http://www.w3.org/1999/xlink">
    <!-- Generator: Sketch 3.8.3 (29802) - http://www.bohemiancoding.com/sketch -->
    <title>Group</title>
    <desc>Created with Sketch.</desc>
    <defs>
        <rect id="path-1" x="226" y="64" width="38" height="12" rx="2"></rect>
        <mask id="mask-2" maskContentUnits="userSpaceOnUse" maskUnits="objectBoundingBox" x="0" y="0" width="38" height="12" fill="white">
            <use xlink:href="#path-1"></use>
        </mask>
    </defs>
    <g id="Page-1" stroke="none" stroke-width="1" fill="none" fill-rule="evenodd">
        <g id="Artboard-5" transform="translate(-151.000000, -22.000000)">
            <g id="Group" transform="translate(151.000000, 21.000000)">
                <rect id="Rectangle-82" fill="#F5F5F5" x="0" y="45" width="700" height="5" rx="2.5"></rect>
                <circle id="Oval-9-Copy-3" fill="#04AADC" cx="245" cy="47" r="10"></circle>
                <circle id="Oval-9-Copy-3" fill="#04AADC" cx="10" cy="47" r="10"></circle>
                <circle id="Oval-9" fill="#FFFFFF" cx="245" cy="47" r="7"></circle>
                <circle id="Oval-9-Copy-3" fill="#04AADC" cx="479" cy="47" r="10"></circle>
                <circle id="Oval-9" fill="#FFFFFF" cx="10" cy="47" r="7"></circle>
                <circle id="Oval-9-Copy-3" fill="#04AADC" cx="700" cy="48" r="10"></circle>
                <circle id="Oval-9" fill="#FFFFFF" cx="479" cy="47" r="7"></circle>
                <circle id="Oval-9" fill="#FFFFFF" cx="700" cy="48" r="7"></circle>
                <text id="DESIGN" font-family="Avenir-Medium, Avenir" font-size="12" font-weight="400" line-spacing="14" letter-spacing="-0.420945585" fill="#4B4B4B">
                    <tspan x="220.103017" y="12">DESIGN</tspan>
                    <tspan x="185" y="29.3239136" font-family="Avenir-Light, Avenir" font-weight="300">set up a installment plan</tspan>
                </text>
                <text id="12-months:-$100.00/m" font-family="AvenirNext-Medium, Avenir Next" font-size="9" font-weight="400" line-spacing="10" letter-spacing="-0.315709203" fill="#A5A5A5">
                    <tspan x="248.976553" y="78"></tspan>
                    <tspan x="198.390855" y="85.2089539">12 months: $100.00/mo </tspan>
                    <tspan x="197" y="95.2089539">Down payment: $300.00</tspan>
                    <tspan x="222.925454" y="105.208954">$1500 total</tspan>
                </text>
                <text id="SIGN-UP" font-family="Avenir-Medium, Avenir" font-size="12" font-weight="400" line-spacing="14" letter-spacing="-0.420945585" fill="#4B4B4B">
                    <tspan x="0" y="76">SIGN UP</tspan>
                    <tspan x="3.252" y="93.3239136" font-family="Avenir-Light, Avenir" font-weight="300">link with your bank</tspan>
                </text>
                <text id="REQUEST" font-family="Avenir-Medium, Avenir" font-size="12" font-weight="400" line-spacing="14" letter-spacing="-0.420945585" fill="#4B4B4B">
                    <tspan x="450.283854" y="12">REQUEST</tspan>
                    <tspan x="428" y="29.3239136" font-family="Avenir-Light, Avenir" font-weight="300">send out the request</tspan>
                </text>
                <text id="RECEIVE" font-family="Avenir-Medium, Avenir" font-size="12" font-weight="400" line-spacing="14" letter-spacing="-0.420945585" fill="#4B4B4B">
                    <tspan x="660.921524" y="76">RECEIVE</tspan>
                    <tspan x="531" y="93.3239136" font-family="Avenir-Light, Avenir" font-weight="300">transaction automatically completed</tspan>
                </text>
                <path d="M235.004968,69.7109157 C234.919291,69.5716914 234.798811,69.4579041 234.643522,69.3695502 C234.488233,69.2811963 234.314206,69.2370201 234.121434,69.2370201 C234.035757,69.2370201 233.950082,69.2463908 233.864406,69.2651325 C233.778729,69.2838743 233.702425,69.3133251 233.63549,69.3534859 C233.568555,69.3936468 233.515008,69.4445164 233.474847,69.5060964 C233.434687,69.5676763 233.414606,69.6439808 233.414606,69.735012 C233.414606,69.8956554 233.486895,70.0147975 233.631474,70.0924418 C233.776053,70.1700861 233.992918,70.2410358 234.282076,70.3052932 C234.464139,70.3481314 234.632812,70.399001 234.7881,70.4579036 C234.943389,70.5168062 235.078595,70.5904333 235.193723,70.6787871 C235.308851,70.767141 235.398542,70.8728963 235.462799,70.9960562 C235.527057,71.1192161 235.559185,71.263793 235.559185,71.4297912 C235.559185,71.6546919 235.516347,71.8447837 235.430671,72.0000723 C235.344994,72.1553609 235.231207,72.282535 235.089305,72.3815984 C234.947404,72.4806618 234.785424,72.5516116 234.603361,72.5944498 C234.421299,72.637288 234.233884,72.6587068 234.041112,72.6587068 C233.751954,72.6587068 233.469494,72.6024825 233.193723,72.4900321 C232.917952,72.3775818 232.689038,72.2062314 232.506976,71.9759759 L233.045129,71.5181446 C233.146869,71.6680784 233.28743,71.7939138 233.466815,71.8956546 C233.6462,71.9973954 233.842986,72.0482651 234.057177,72.0482651 C234.153563,72.0482651 234.245931,72.0388943 234.334285,72.0201526 C234.422639,72.0014109 234.502959,71.9706214 234.575249,71.9277831 C234.647539,71.8849449 234.705102,71.8287206 234.74794,71.7591084 C234.790778,71.6894963 234.812197,71.6011438 234.812197,71.4940482 C234.812197,71.3173405 234.72786,71.1861504 234.559185,71.1004739 C234.390509,71.0147974 234.142854,70.9344769 233.816213,70.85951 C233.687698,70.8273814 233.557847,70.7885598 233.426655,70.7430442 C233.295463,70.6975286 233.17632,70.6346108 233.069225,70.5542892 C232.962129,70.4739675 232.875115,70.3735669 232.808181,70.2530843 C232.741246,70.1326018 232.707779,69.9840089 232.707779,69.8073012 C232.707779,69.6038196 232.749278,69.4284532 232.832277,69.2811968 C232.915276,69.1339404 233.023709,69.0134596 233.157578,68.919751 C233.291448,68.8260424 233.444057,68.7564313 233.61541,68.7109157 C233.786763,68.6654 233.963468,68.6426426 234.14553,68.6426426 C234.418624,68.6426426 234.682343,68.6961896 234.936695,68.8032851 C235.191047,68.9103807 235.387832,69.065667 235.527056,69.2691486 L235.004968,69.7109157 Z M238.563201,70.0884257 C238.563201,69.8046224 238.477526,69.5944505 238.306173,69.4579036 C238.13482,69.3213567 237.907245,69.2530843 237.623442,69.2530843 C237.409251,69.2530843 237.207111,69.2945833 237.017016,69.3775823 C236.826921,69.4605814 236.667619,69.5663367 236.539104,69.6948514 L236.137498,69.2129237 C236.324915,69.036216 236.553829,68.8969938 236.824245,68.795253 C237.094661,68.6935122 237.385154,68.6426426 237.695731,68.6426426 C237.968825,68.6426426 238.20577,68.6814641 238.406574,68.7591084 C238.607378,68.8367527 238.772035,68.942508 238.90055,69.0763775 C239.029065,69.210247 239.125449,69.3682106 239.189707,69.5502731 C239.253964,69.7323356 239.286092,69.9277821 239.286092,70.1366185 L239.286092,71.7992691 C239.286092,71.9277838 239.290108,72.0629899 239.298141,72.2048916 C239.306173,72.3467932 239.320898,72.4632579 239.342317,72.5542892 L238.659586,72.5542892 C238.616748,72.3722267 238.595329,72.1901669 238.595329,72.0081044 L238.571233,72.0081044 C238.432009,72.211586 238.256642,72.3695496 238.045128,72.482 C237.833615,72.5944504 237.583283,72.6506747 237.294124,72.6506747 C237.144191,72.6506747 236.987566,72.6305946 236.824245,72.5904337 C236.660924,72.5502729 236.512331,72.4846778 236.378462,72.3936466 C236.244592,72.3026153 236.133482,72.1821346 236.045128,72.0322008 C235.956775,71.882267 235.912598,71.6975299 235.912598,71.4779839 C235.912598,71.1888259 235.990242,70.9599125 236.14553,70.7912369 C236.300819,70.6225614 236.504297,70.4940486 236.755972,70.4056948 C237.007646,70.3173409 237.291446,70.2597779 237.607377,70.233004 C237.923309,70.2062301 238.241914,70.1928434 238.563201,70.1928434 L238.563201,70.0884257 Z M238.378462,70.7390281 C238.191045,70.7390281 237.996937,70.7470602 237.796133,70.7631245 C237.595328,70.7791888 237.413269,70.811317 237.249948,70.85951 C237.086627,70.9077031 236.951421,70.9799915 236.844325,71.0763775 C236.73723,71.1727635 236.683683,71.3012763 236.683683,71.4619197 C236.683683,71.57437 236.70644,71.6680773 236.751956,71.7430442 C236.797471,71.8180111 236.857712,71.8795901 236.932679,71.9277831 C237.007646,71.9759761 237.090643,72.009443 237.181675,72.0281847 C237.272706,72.0469265 237.366413,72.0562972 237.462799,72.0562972 C237.816215,72.0562972 238.087966,71.9505419 238.27806,71.7390281 C238.468155,71.5275143 238.563201,71.2611181 238.563201,70.9398313 L238.563201,70.7390281 L238.378462,70.7390281 Z M240.964807,69.3735663 C241.061193,69.1700847 241.215141,68.9973956 241.426655,68.855494 C241.638168,68.7135923 241.888501,68.6426426 242.177659,68.6426426 C242.434688,68.6426426 242.666279,68.7015443 242.872438,68.8193494 C243.078597,68.9371545 243.240576,69.132601 243.358381,69.4056948 C243.486896,69.1593749 243.666279,68.9706218 243.896534,68.8394297 C244.12679,68.7082376 244.37846,68.6426426 244.651554,68.6426426 C244.897874,68.6426426 245.109385,68.6841415 245.286092,68.7671406 C245.4628,68.8501396 245.610054,68.9612496 245.727859,69.1004739 C245.845665,69.2396982 245.932678,69.4030165 245.988904,69.5904337 C246.045129,69.777851 246.073241,69.9786522 246.073241,70.1928434 L246.073241,72.5542892 L245.318221,72.5542892 L245.318221,70.4418394 C245.318221,70.2865508 245.304834,70.1392965 245.27806,70.0000723 C245.251286,69.860848 245.205771,69.73769 245.141514,69.6305944 C245.077257,69.5234988 244.991581,69.4378236 244.884486,69.3735663 C244.77739,69.3093089 244.640846,69.2771807 244.474847,69.2771807 C244.303494,69.2771807 244.15624,69.3133249 244.03308,69.3856145 C243.90992,69.457904 243.80952,69.5516112 243.731875,69.666739 C243.654231,69.7818667 243.598007,69.9117182 243.563201,70.0562972 C243.528395,70.2008762 243.510992,70.3481304 243.510992,70.4980643 L243.510992,72.5542892 L242.755972,72.5542892 L242.755972,70.2892289 C242.755972,70.1392951 242.742585,70.0027503 242.715811,69.8795904 C242.689037,69.7564304 242.643522,69.6506751 242.579265,69.5623213 C242.515008,69.4739674 242.43201,69.4043563 242.330269,69.3534859 C242.228528,69.3026155 242.102693,69.2771807 241.952759,69.2771807 C241.67431,69.2771807 241.44272,69.3909681 241.25798,69.6185462 C241.07324,69.8461243 240.980871,70.1500035 240.980871,70.5301928 L240.980871,72.5542892 L240.225851,72.5542892 L240.225851,69.5663373 C240.225851,69.4645965 240.223174,69.3334064 240.217819,69.1727631 C240.212464,69.0121197 240.204432,68.8702202 240.193723,68.7470602 L240.908582,68.7470602 C240.919292,68.8434463 240.927324,68.9518789 240.932679,69.0723614 C240.938033,69.192844 240.940711,69.2932446 240.940711,69.3735663 L240.964807,69.3735663 Z M247.784084,74.482 L247.029064,74.482 L247.029064,68.7470602 L247.76802,68.7470602 L247.76802,69.3414378 L247.792116,69.3414378 C247.915276,69.1379561 248.095997,68.9706218 248.334285,68.8394297 C248.572573,68.7082376 248.849678,68.6426426 249.16561,68.6426426 C249.449414,68.6426426 249.707778,68.6935122 249.940711,68.795253 C250.173644,68.8969938 250.374445,69.0388933 250.54312,69.2209558 C250.711796,69.4030183 250.841647,69.6158676 250.932679,69.85951 C251.02371,70.1031525 251.069225,70.3641941 251.069225,70.6426426 C251.069225,70.9210911 251.02371,71.1834713 250.932679,71.4297912 C250.841647,71.676111 250.713135,71.890299 250.547137,72.0723614 C250.381138,72.2544239 250.180337,72.3976621 249.944727,72.5020803 C249.709117,72.6064985 249.444059,72.6587068 249.149546,72.6587068 C248.876452,72.6587068 248.619427,72.5998051 248.378462,72.482 C248.137497,72.3641949 247.947405,72.1981992 247.808181,71.984008 L247.784084,71.984008 L247.784084,74.482 Z M250.290108,70.6426426 C250.290108,70.4659349 250.263335,70.2945845 250.209787,70.1285863 C250.156239,69.9625882 250.075919,69.815334 249.968823,69.6868193 C249.861728,69.5583046 249.729199,69.4565653 249.571233,69.3815984 C249.413267,69.3066315 249.229868,69.2691486 249.021032,69.2691486 C248.82826,69.2691486 248.652894,69.3066315 248.494928,69.3815984 C248.336962,69.4565653 248.201756,69.5583046 248.089305,69.6868193 C247.976855,69.815334 247.889841,69.9625882 247.828261,70.1285863 C247.766681,70.2945845 247.735892,70.4686122 247.735892,70.6506747 C247.735892,70.8327372 247.766681,71.0067649 247.828261,71.1727631 C247.889841,71.3387612 247.976855,71.4846767 248.089305,71.6105141 C248.201756,71.7363514 248.336962,71.836752 248.494928,71.9117189 C248.652894,71.9866858 248.82826,72.0241687 249.021032,72.0241687 C249.229868,72.0241687 249.413267,71.9853471 249.571233,71.9077028 C249.729199,71.8300585 249.861728,71.7269806 249.968823,71.5984659 C250.075919,71.4699512 250.156239,71.3226969 250.209787,71.1566988 C250.263335,70.9907006 250.290108,70.8193503 250.290108,70.6426426 L250.290108,70.6426426 Z M252.571233,72.5542892 L251.816213,72.5542892 L251.816213,66.482 L252.571233,66.482 L252.571233,72.5542892 Z M256.354365,70.3133253 C256.349011,70.1633915 256.323576,70.0228306 256.27806,69.8916386 C256.232545,69.7604465 256.165611,69.6466591 256.077257,69.5502731 C255.988903,69.4538871 255.879132,69.3775826 255.74794,69.3213574 C255.616748,69.2651322 255.4628,69.2370201 255.286092,69.2370201 C255.125449,69.2370201 254.974179,69.2651322 254.832277,69.3213574 C254.690375,69.3775826 254.567217,69.4538871 254.462799,69.5502731 C254.358381,69.6466591 254.272706,69.7604465 254.205771,69.8916386 C254.138836,70.0228306 254.100015,70.1633915 254.089305,70.3133253 L256.354365,70.3133253 Z M257.117418,70.6185462 L257.117418,70.7470602 C257.117418,70.7898985 257.11474,70.8327361 257.109385,70.8755743 L254.089305,70.8755743 C254.09466,71.0362177 254.130804,71.1874879 254.197739,71.3293896 C254.264674,71.4712912 254.354365,71.5944493 254.466815,71.6988675 C254.579266,71.8032857 254.709117,71.8849448 254.856373,71.9438474 C255.00363,72.00275 255.160255,72.0322008 255.326253,72.0322008 C255.583282,72.0322008 255.805502,71.9759765 255.99292,71.8635261 C256.180337,71.7510757 256.327591,71.6145309 256.434687,71.4538876 L256.964807,71.8795904 C256.761326,72.1473293 256.521703,72.3441145 256.245932,72.4699518 C255.970161,72.5957891 255.663604,72.6587068 255.326253,72.6587068 C255.037095,72.6587068 254.76936,72.6105145 254.52304,72.5141285 C254.27672,72.4177425 254.06521,72.2825363 253.888502,72.108506 C253.711794,71.9344757 253.572572,71.7243038 253.470831,71.4779839 C253.36909,71.2316641 253.318221,70.9585745 253.318221,70.6587068 C253.318221,70.364194 253.367752,70.092443 253.466815,69.8434458 C253.565879,69.5944486 253.703762,69.3815993 253.88047,69.2048916 C254.057178,69.0281839 254.266011,68.8903004 254.506976,68.7912369 C254.747941,68.6921735 255.007644,68.6426426 255.286092,68.6426426 C255.564541,68.6426426 255.81755,68.6881575 256.045128,68.7791888 C256.272707,68.87022 256.465476,69.0014101 256.623442,69.1727631 C256.781408,69.344116 256.903227,69.5516106 256.988904,69.795253 C257.07458,70.0388955 257.117418,70.3133238 257.117418,70.6185462 L257.117418,70.6185462 Z" id="Shape" fill="#A5A5A5"></path>
                <use id="Rectangle-84" stroke="#A5A5A5" mask="url(#mask-2)" stroke-width="2" xlink:href="#path-1"></use>
            </g>
        </g>
    </g>
</svg>
