<?xml version="1.0" encoding="UTF-8" standalone="no"?>
<svg width="92px" height="23px" viewBox="0 0 92 23" version="1.1" xmlns="http://www.w3.org/2000/svg" xmlns:xlink="http://www.w3.org/1999/xlink">
    <!-- Generator: Sketch 39 (31667) - http://www.bohemiancoding.com/sketch -->
    <title>欧耶教育 copy</title>
    <desc>Created with Sketch.</desc>
    <defs></defs>
    <g id="Page-1" stroke="none" stroke-width="1" fill="none" fill-rule="evenodd">
        <path d="M12.552,0.288 C12.12,4.128 11.136,7.104 9.648,9.24 L11.664,10.68 C12.576,9.528 13.32,7.944 13.896,5.952 L18.816,5.952 C18.456,7.584 18.024,9.024 17.52,10.272 L19.92,10.968 C20.52,9.048 21,7.128 21.36,5.208 L21.36,3.624 L14.472,3.624 C14.664,2.712 14.808,1.728 14.952,0.672 L12.552,0.288 Z M14.4,7.488 C14.376,10.512 14.112,12.96 13.632,14.88 C13.08,16.8 12,18.504 10.416,19.944 L10.416,18.576 L4.08,18.576 C3.408,18.576 3.072,18.312 3.072,17.808 L3.072,16.656 L4.464,17.88 C5.424,16.728 6.336,15.36 7.176,13.8 C7.68,14.928 8.184,16.128 8.664,17.376 L10.68,16.32 C9.96,14.544 9.216,12.816 8.4,11.16 C9.096,9.456 9.744,7.56 10.32,5.472 L8.232,4.656 C7.896,6 7.488,7.296 7.056,8.544 C6.408,7.368 5.736,6.24 5.064,5.136 L3.12,6 C4.104,7.608 5.04,9.336 5.952,11.184 C5.136,12.912 4.176,14.496 3.072,15.888 L3.072,3.528 L10.752,3.528 L10.752,1.272 L0,1.272 L0,3.528 L0.768,3.528 L0.768,18.12 C0.768,19.848 1.632,20.712 3.384,20.712 L9.744,20.712 L11.232,22.488 C13.584,20.712 15.096,18.528 15.792,15.936 C16.944,18.384 18.528,20.52 20.52,22.296 L22.224,20.304 C19.536,18.288 17.616,15.6 16.488,12.264 C16.632,10.824 16.728,9.216 16.728,7.488 L14.4,7.488 Z M30.9923203,15.816 C29.7443203,16.104 28.4963203,16.368 27.2243203,16.584 L27.2243203,13.248 L30.9923203,13.248 L30.9923203,15.816 Z M30.9923203,10.992 L27.2243203,10.992 L27.2243203,8.208 L30.9923203,8.208 L30.9923203,10.992 Z M30.9923203,5.952 L27.2243203,5.952 L27.2243203,3.096 L30.9923203,3.096 L30.9923203,5.952 Z M33.3923203,3.096 L35.1203203,3.096 L35.1203203,0.792 L24.1667837,0.792 C23.6153476,0.792 23.1683203,1.23623438 23.1683203,1.78247461 L23.1683203,3.096 L24.7763203,3.096 L24.7763203,16.968 C24.1763203,17.064 23.5763203,17.136 22.9523203,17.208 L23.5523203,19.608 C26.1443203,19.176 28.6163203,18.696 30.9923203,18.144 L30.9923203,22.368 L33.3923203,22.368 L33.3923203,3.096 Z M35.7923203,0.984 L35.7923203,22.392 L38.2403203,22.392 L38.2403203,3.288 L41.7923203,3.288 C41.0243203,5.76 40.2563203,7.872 39.4883203,9.648 C41.3843203,12.048 42.3443203,13.992 42.3683203,15.48 C42.3443203,16.128 42.2723203,16.536 42.1763203,16.728 C42.0323203,16.944 41.7443203,17.064 41.2883203,17.088 C40.6643203,17.088 39.9203203,17.016 39.0323203,16.92 L39.7763203,19.44 C41.7923203,19.44 43.1363203,19.128 43.8083203,18.552 C44.4323203,17.976 44.7683203,16.944 44.7683203,15.48 C44.7443203,13.968 43.8323203,12.024 42.0563203,9.648 C42.9203203,7.584 43.7363203,5.304 44.4803203,2.856 L44.4803203,0.984 L35.7923203,0.984 Z M47.6326406,2.136 L47.6326406,4.344 L50.4646406,4.344 L50.4646406,6.12 L46.5286406,6.12 L46.5286406,8.424 L51.6406406,8.424 C50.0086406,10.008 48.1126406,11.4 46.0006406,12.576 L47.5606406,14.352 C48.6886406,13.728 49.7926406,12.984 50.8726406,12.144 L53.9926406,12.144 C53.2726406,12.84 52.5046406,13.464 51.7366406,14.016 L51.7366406,15.408 C50.1526406,15.552 48.3766406,15.696 46.4566406,15.792 L46.8166406,18.192 C48.6166406,18.024 50.2486406,17.856 51.7366406,17.688 L51.7366406,18.864 C51.7366406,19.632 51.3766406,20.04 50.6566406,20.04 C50.2006406,20.04 49.5766406,19.968 48.7846406,19.872 L49.4326406,22.104 L51.5926406,22.104 C53.2726406,22.104 54.1366406,21.24 54.1366406,19.536 L54.1366406,17.376 C55.7926406,17.136 57.1366406,16.872 58.1446406,16.608 L58.1446406,14.28 C57.0166406,14.568 55.6726406,14.856 54.1366406,15.096 L54.1366406,14.496 C55.2166406,13.584 56.1526406,12.648 56.9206406,11.712 L56.9206406,9.936 L53.2966406,9.936 C53.7766406,9.456 54.2326406,8.952 54.6886406,8.424 L57.5206406,8.424 C57.3046406,8.76 57.0886406,9.12 56.8486406,9.48 L58.3366406,11.328 C59.5366406,9.888 60.5206406,8.088 61.2886406,5.928 L64.2646406,5.928 C64.1206406,8.616 63.6166406,10.992 62.7286406,13.056 C62.1286406,11.88 61.6246406,10.632 61.2166406,9.288 L59.2966406,10.368 C59.8246406,12.192 60.5206406,13.92 61.3846406,15.552 C60.1366406,17.376 58.4566406,18.864 56.3446406,20.016 L57.7846406,22.32 C59.7526406,21.12 61.4326406,19.608 62.7766406,17.832 C63.8806406,19.44 65.2006406,20.904 66.7366406,22.248 L68.4886406,20.232 C66.8086406,18.864 65.3926406,17.304 64.2166406,15.552 C65.6086406,12.864 66.4006406,9.648 66.5686406,5.928 L67.8166406,5.928 L67.8166406,3.552 L62.0086406,3.552 C62.2486406,2.592 62.4406406,1.584 62.6326406,0.528 L60.1846406,0.096 C59.7046406,3.312 58.8406406,6 57.6406406,8.208 L57.6406406,6.12 L56.4646406,6.12 C57.3046406,4.872 58.0966406,3.528 58.8646406,2.088 L56.9206406,1.08 C56.3926406,2.088 55.8166406,3.096 55.1926406,4.08 L55.1926406,2.136 L52.8406406,2.136 L52.8406406,1.34125417 C52.8406406,0.786067624 52.3937332,0.336 51.8467696,0.336 L50.4646406,0.336 L50.4646406,2.136 L47.6326406,2.136 Z M53.7286406,6.12 L52.8406406,6.12 L52.8406406,4.344 L55.0246406,4.344 C54.6166406,4.944 54.1846406,5.544 53.7286406,6.12 L53.7286406,6.12 Z M78.5529609,0 C78.0489609,0.72 77.5449609,1.392 77.0649609,2.016 L69.4809609,2.016 L69.4809609,4.368 L74.9049609,4.368 C73.7049609,5.496 72.4809609,6.288 71.2809609,6.72 L71.7369609,8.784 C76.6329609,8.592 81.7929609,8.352 87.2409609,8.016 C87.8169609,8.592 88.3689609,9.168 88.8489609,9.72 L90.9609609,8.256 C89.9049609,7.152 88.4649609,5.856 86.5929609,4.368 L91.3209609,4.368 L91.3209609,3.01345975 C91.3209609,2.46257794 90.8696536,2.016 90.3305853,2.016 L80.1609609,2.016 C80.4489609,1.632 80.7849609,1.2 81.1209609,0.768 L78.5529609,0 Z M85.2009609,6.12 C83.0649609,6.264 79.8249609,6.456 75.5049609,6.672 C76.3689609,6.024 77.2329609,5.256 78.1209609,4.368 L84.8649609,4.368 L83.8809609,4.992 C84.3369609,5.376 84.7689609,5.736 85.2009609,6.12 L85.2009609,6.12 Z M87.9129609,9.48 L72.8169609,9.48 L72.8169609,14.52 C72.7689609,17.064 72.0249609,19.128 70.5849609,20.76 L72.5049609,22.536 C73.7769609,21.072 74.6169609,19.272 75.0249609,17.136 L75.5289609,19.104 C78.9849609,18.744 82.2969609,18.336 85.4169609,17.856 L85.4169609,19.032 C85.4169609,19.752 85.1049609,20.112 84.5049609,20.112 C83.7369609,20.112 82.9209609,20.064 82.0089609,20.016 L82.6329609,22.296 L85.2249609,22.296 C87.0009609,22.296 87.9129609,21.504 87.9129609,19.92 L87.9129609,9.48 Z M75.0969609,16.752 C75.1929609,16.056 75.2649609,15.336 75.2889609,14.568 C76.4889609,14.616 77.6649609,14.712 78.7929609,14.808 C80.3769609,14.952 81.9369609,15.144 83.4249609,15.36 L84.2649609,13.416 C82.5849609,13.224 81.1689609,13.056 80.0409609,12.96 C79.0329609,12.864 77.4489609,12.768 75.2889609,12.624 L75.2889609,11.712 L85.4169609,11.712 L85.4169609,15.768 C82.0809609,16.2 78.6489609,16.536 75.0969609,16.752 L75.0969609,16.752 Z" id="欧耶教育-copy" fill="#FFFFFF"></path>
    </g>
</svg>